<?xml version="1.0" standalone="no"?>
<!DOCTYPE svg PUBLIC "-//W3C//DTD SVG 20010904//EN"
 "http://www.w3.org/TR/2001/REC-SVG-20010904/DTD/svg10.dtd">
<svg version="1.0" xmlns="http://www.w3.org/2000/svg"
 width="416.000000pt" height="72.000000pt" viewBox="0 0 416.000000 72.000000"
 preserveAspectRatio="xMidYMid meet">

<g transform="translate(0.000000,72.000000) scale(0.100000,-0.100000)"
fill="#000000" stroke="none">
<path d="M2154 675 c-53 -69 -54 -71 -54 -282 0 -109 -4 -203 -8 -209 -4 -6
-16 -16 -27 -22 -16 -9 -1 -11 74 -12 90 0 93 1 72 18 -20 16 -21 26 -24 282
l-2 264 -31 -39z"/>
<path d="M232 582 c-48 -115 -52 -134 -18 -77 l25 40 16 -40 c9 -22 25 -59 35
-82 l19 -42 -81 -3 c-54 -2 -83 -7 -86 -15 -3 -10 19 -13 86 -13 l90 0 31 -74
c17 -41 31 -77 31 -80 0 -3 -10 -14 -22 -26 l-22 -20 87 0 86 0 -19 33 c-10
17 -60 131 -110 252 -51 121 -95 226 -99 233 -5 9 -23 -23 -49 -86z"/>
<path d="M2460 671 c-121 -39 -179 -126 -180 -269 0 -69 4 -91 25 -132 73
-144 251 -172 378 -60 36 31 37 34 37 101 l0 69 -75 0 -74 0 24 -36 c19 -28
25 -50 25 -90 0 -63 -21 -84 -83 -84 -60 0 -92 23 -124 87 -77 157 -14 393
105 393 78 -1 159 -62 178 -135 8 -29 8 -28 15 19 5 30 4 57 -2 69 -25 45
-185 89 -249 68z"/>
<path d="M4020 661 c14 -11 28 -21 33 -21 4 0 25 -28 47 -62 l40 -61 0 60 c0
69 -7 78 -65 88 -22 4 -49 9 -60 12 -17 4 -16 1 5 -16z"/>
<path d="M563 649 l27 -21 0 -311 1 -312 30 35 c57 66 59 78 59 339 0 204 2
242 16 255 40 40 112 -1 121 -70 7 -56 -17 -105 -67 -133 -22 -12 -40 -24 -40
-27 0 -2 32 -60 71 -129 l70 -125 65 0 65 0 -34 33 c-27 26 -137 210 -137 230
0 3 18 16 41 29 65 36 86 97 54 158 -28 53 -64 64 -225 68 l-145 3 28 -22z"/>
<path d="M1053 649 l27 -21 0 -216 c0 -120 -4 -222 -8 -229 -4 -7 -19 -16 -32
-22 -19 -7 2 -10 85 -10 85 0 105 2 90 11 -39 21 -45 39 -45 132 0 95 9 128
27 104 5 -7 40 -66 77 -131 l68 -117 60 0 60 0 -29 33 c-28 32 -153 246 -153
262 0 9 73 96 144 173 l49 52 -79 0 c-76 -1 -78 -1 -51 -16 15 -8 27 -20 27
-26 0 -6 -32 -49 -72 -95 -67 -79 -102 -107 -120 -96 -5 2 -8 47 -8 99 l0 94
33 20 32 20 -105 0 -105 -1 28 -20z"/>
<path d="M1545 648 c81 -119 374 -494 388 -496 16 -3 17 12 17 201 0 124 4
217 11 236 6 17 28 43 47 56 l37 25 -100 0 c-90 -1 -98 -2 -80 -15 66 -49 65
-45 65 -201 0 -79 -2 -144 -5 -144 -2 0 -65 81 -141 180 l-136 180 -59 0 -59
0 15 -22z"/>
<path d="M2790 650 l25 -19 0 -221 0 -221 -25 -19 -25 -20 94 0 94 0 -27 21
c-25 20 -26 24 -26 120 l0 99 110 0 110 0 0 -99 c0 -96 -1 -100 -26 -120 l-27
-21 94 0 94 0 -25 20 -25 19 0 221 0 221 25 19 25 20 -94 0 -94 0 27 -25 c26
-24 27 -28 24 -122 l-3 -98 -107 -3 -108 -3 0 99 c0 94 1 101 26 126 l27 26
-94 0 -94 0 25 -20z"/>
<path d="M3306 639 c-3 -17 -6 -50 -6 -73 l0 -41 19 30 c33 53 76 86 120 92
l41 6 0 -324 1 -324 30 35 c57 66 59 76 59 355 0 250 0 255 20 255 44 0 89
-29 125 -82 l37 -53 -6 49 c-3 27 -6 62 -6 77 l0 29 -214 0 -213 0 -7 -31z"/>
<path d="M3878 652 c-58 -35 -71 -117 -31 -179 9 -14 51 -51 94 -84 42 -32 86
-70 98 -85 29 -37 36 -86 18 -123 -18 -36 -18 -36 27 -17 101 42 86 172 -32
259 -31 23 -76 61 -100 84 -41 39 -44 45 -40 85 3 24 8 51 12 61 10 22 -10 22
-46 -1z"/>
<path d="M1601 333 c-1 -94 -10 -124 -47 -158 l-27 -25 92 0 c88 0 118 11 66
24 -49 12 -65 40 -66 114 -2 106 -16 144 -18 45z"/>
<path d="M96 252 c-11 -24 -35 -56 -53 -72 l-34 -30 88 0 88 0 -29 24 c-23 18
-31 34 -35 72 l-6 49 -19 -43z"/>
<path d="M3816 259 c-13 -64 -8 -79 29 -95 19 -7 48 -14 65 -14 l32 0 -33 27
c-18 15 -45 47 -59 70 l-28 43 -6 -31z"/>
</g>
</svg>
